<svg width="20" height="20" viewBox="0 0 20 20" fill="none" xmlns="http://www.w3.org/2000/svg">
<path d="M10.0029 5.50684C7.51855 5.50684 5.51465 7.51074 5.51465 9.99512C5.51465 12.4795 7.51855 14.4834 10.0029 14.4834C12.4873 14.4834 14.4912 12.4795 14.4912 9.99512C14.4912 7.51074 12.4873 5.50684 10.0029 5.50684ZM10.0029 12.9131C8.39746 12.9131 7.08496 11.6045 7.08496 9.99512C7.08496 8.38574 8.39355 7.07715 10.0029 7.07715C11.6123 7.07715 12.9209 8.38574 12.9209 9.99512C12.9209 11.6045 11.6084 12.9131 10.0029 12.9131ZM15.7217 5.32324C15.7217 5.90527 15.2529 6.37012 14.6748 6.37012C14.0928 6.37012 13.6279 5.90137 13.6279 5.32324C13.6279 4.74512 14.0967 4.27637 14.6748 4.27637C15.2529 4.27637 15.7217 4.74512 15.7217 5.32324ZM18.6943 6.38574C18.6279 4.9834 18.3076 3.74121 17.2803 2.71777C16.2568 1.69434 15.0146 1.37402 13.6123 1.30371C12.167 1.22168 7.83496 1.22168 6.38965 1.30371C4.99121 1.37012 3.74902 1.69043 2.72168 2.71387C1.69434 3.7373 1.37793 4.97949 1.30762 6.38184C1.22559 7.82715 1.22559 12.1592 1.30762 13.6045C1.37402 15.0068 1.69434 16.249 2.72168 17.2725C3.74902 18.2959 4.9873 18.6162 6.38965 18.6865C7.83496 18.7686 12.167 18.7686 13.6123 18.6865C15.0146 18.6201 16.2568 18.2998 17.2803 17.2725C18.3037 16.249 18.624 15.0068 18.6943 13.6045C18.7764 12.1592 18.7764 7.83105 18.6943 6.38574ZM16.8271 15.1553C16.5225 15.9209 15.9326 16.5107 15.1631 16.8193C14.0107 17.2764 11.2764 17.1709 10.0029 17.1709C8.72949 17.1709 5.99121 17.2725 4.84277 16.8193C4.07715 16.5146 3.4873 15.9248 3.17871 15.1553C2.72168 14.0029 2.82715 11.2686 2.82715 9.99512C2.82715 8.72168 2.72559 5.9834 3.17871 4.83496C3.4834 4.06934 4.07324 3.47949 4.84277 3.1709C5.99512 2.71387 8.72949 2.81934 10.0029 2.81934C11.2764 2.81934 14.0147 2.71777 15.1631 3.1709C15.9287 3.47559 16.5186 4.06543 16.8271 4.83496C17.2842 5.9873 17.1787 8.72168 17.1787 9.99512C17.1787 11.2686 17.2842 14.0068 16.8271 15.1553Z" fill="black"/>
</svg>
